<svg xmlns="http://www.w3.org/2000/svg" width="75.525" height="19.025" viewBox="0 0 75.525 19.025"><path d="M13.125-15.625a.48.48,0,0,1-.15.35.48.48,0,0,1-.35.15H7.55a1.716,1.716,0,0,0-1.238.362,1.89,1.89,0,0,0-.362,1.338v2.25h6.475a.48.48,0,0,1,.35.15.48.48,0,0,1,.15.35V-8.3a.48.48,0,0,1-.15.35.48.48,0,0,1-.35.15H5.95V-.5A.478.478,0,0,1,5.8-.15.484.484,0,0,1,5.447,0H2.178a.484.484,0,0,1-.352-.15A.478.478,0,0,1,1.675-.5V-13.425a6.405,6.405,0,0,1,.5-2.75A4.009,4.009,0,0,1,3.523-17.8a4.989,4.989,0,0,1,1.96-.775,13.129,13.129,0,0,1,2.317-.2q1,0,1.763.038t1.337.087q.575.05.988.1t.737.1q.5.075.5.5ZM30.65-.3q0,.3-.375.3H26.428a.339.339,0,0,1-.3-.15,3.286,3.286,0,0,1-.2-.35L22.591-6.825l-.274.025q-.4,0-.908-.025T20.55-6.85V-.5a.478.478,0,0,1-.151.35.484.484,0,0,1-.352.15H16.778a.484.484,0,0,1-.352-.15.478.478,0,0,1-.151-.35V-17.275a1.1,1.1,0,0,1,.276-.875,1.853,1.853,0,0,1,.851-.325q.426-.075,1.027-.125t1.277-.1q.676-.05,1.39-.075t1.39-.025a14.586,14.586,0,0,1,2.98.288,6.629,6.629,0,0,1,2.392.975,4.78,4.78,0,0,1,1.59,1.813,6.044,6.044,0,0,1,.576,2.775v.325A5.193,5.193,0,0,1,29.094-9.4,5.344,5.344,0,0,1,26.78-7.625l3.795,7.05A.622.622,0,0,1,30.65-.3Zm-4.9-12.65a1.854,1.854,0,0,0-.846-1.687,4.51,4.51,0,0,0-2.413-.538q-.124,0-.41.013l-.585.025-.572.025q-.274.013-.373.013v4.8q.1,0,.348.013l.535.025q.286.012.535.012h.348a8.15,8.15,0,0,0,1.63-.137A2.9,2.9,0,0,0,25-10.8a1.537,1.537,0,0,0,.572-.725,3.058,3.058,0,0,0,.174-1.1ZM47.1-7.8a10.538,10.538,0,0,1-.574,3.7,6.64,6.64,0,0,1-1.572,2.487,6,6,0,0,1-2.346,1.4,9.324,9.324,0,0,1-2.9.438,9.324,9.324,0,0,1-2.9-.438,6,6,0,0,1-2.346-1.4A6.64,6.64,0,0,1,32.9-4.1a10.538,10.538,0,0,1-.574-3.7v-2.975a10.538,10.538,0,0,1,.574-3.7,6.64,6.64,0,0,1,1.572-2.488,6,6,0,0,1,2.346-1.4,9.324,9.324,0,0,1,2.9-.437,9.324,9.324,0,0,1,2.9.438,6,6,0,0,1,2.346,1.4,6.64,6.64,0,0,1,1.572,2.488,10.538,10.538,0,0,1,.574,3.7Zm-4.275-2.982a5.519,5.519,0,0,0-.763-3.289,2.747,2.747,0,0,0-2.338-1,2.712,2.712,0,0,0-2.325,1,5.591,5.591,0,0,0-.75,3.289v2.988A5.591,5.591,0,0,0,37.4-4.5a2.712,2.712,0,0,0,2.325,1,2.747,2.747,0,0,0,2.338-1,5.519,5.519,0,0,0,.763-3.289ZM62.1-5.25a5.807,5.807,0,0,1-.35,1.975,4.51,4.51,0,0,1-1.162,1.75A6.139,6.139,0,0,1,58.475-.263a9.167,9.167,0,0,1-3.2.488,20.415,20.415,0,0,1-2.638-.15,16.911,16.911,0,0,1-2.088-.4A.867.867,0,0,1,50.2-.5a.4.4,0,0,1-.15-.325v-2.45a.461.461,0,0,1,.125-.375.5.5,0,0,1,.325-.1h.075q.375.05,1.038.1t1.362.088q.7.038,1.337.075t1.013.037a2.674,2.674,0,0,0,1.763-.425A1.717,1.717,0,0,0,57.55-5.2a1.378,1.378,0,0,0-.338-.937A5.68,5.68,0,0,0,55.9-7.1L52.45-9.15a7.769,7.769,0,0,1-1.437-1.075,5.146,5.146,0,0,1-.9-1.15,4.413,4.413,0,0,1-.475-1.238,6.208,6.208,0,0,1-.138-1.312,5.718,5.718,0,0,1,.313-1.912,3.678,3.678,0,0,1,1.063-1.55,5.273,5.273,0,0,1,1.975-1.038A10.572,10.572,0,0,1,55.9-18.8q.675,0,1.463.05t1.512.125q.725.075,1.35.175a8.807,8.807,0,0,1,.975.2.745.745,0,0,1,.263.15.381.381,0,0,1,.112.3v2.525a.51.51,0,0,1-.087.3.387.387,0,0,1-.338.125H61.1q-.275-.025-.888-.062L58.825-15q-.775-.05-1.587-.087T55.8-15.125a2.624,2.624,0,0,0-1.512.325,1.164,1.164,0,0,0-.437,1,1.353,1.353,0,0,0,.075.475,1.1,1.1,0,0,0,.262.388,3.235,3.235,0,0,0,.513.4q.325.213.825.488l3.2,1.725a6.484,6.484,0,0,1,2.662,2.3A5.5,5.5,0,0,1,62.1-5.25ZM77.2-15.525a.426.426,0,0,1-.162.338.547.547,0,0,1-.363.137h-4.05V-.5a.48.48,0,0,1-.15.35.48.48,0,0,1-.35.15H68.85a.48.48,0,0,1-.35-.15.48.48,0,0,1-.15-.35V-15.05H64.275a.5.5,0,0,1-.35-.137.44.44,0,0,1-.15-.338V-18.1a.44.44,0,0,1,.15-.337.5.5,0,0,1,.35-.138h12.4a.547.547,0,0,1,.363.138.426.426,0,0,1,.162.337Z" transform="translate(-1.675 18.8)" fill="#005bff"/></svg>