<svg xmlns="http://www.w3.org/2000/svg" width="86.044" height="21.364" viewBox="0 0 86.044 21.364">
  <path id="Path_1" data-name="Path 1" d="M19.516-.5a.469.469,0,0,1-.154.364.506.506,0,0,1-.35.14H13.136a.629.629,0,0,1-.52-.168,2.553,2.553,0,0,1-.239-.392L9.044-7.14h-.9V-.56a.537.537,0,0,1-.168.392A.537.537,0,0,1,7.588,0H2.128a.585.585,0,0,1-.406-.168A.518.518,0,0,1,1.54-.56V-18.368a4.789,4.789,0,0,1,.1-1.064,1.618,1.618,0,0,1,.322-.686,1.406,1.406,0,0,1,.6-.406,4.8,4.8,0,0,1,.94-.224Q3.868-20.8,4.6-20.86t1.613-.112q.884-.056,1.795-.084t1.641-.028a18.876,18.876,0,0,1,3.8.35,7.916,7.916,0,0,1,2.889,1.162,5.281,5.281,0,0,1,1.823,2.142,7.724,7.724,0,0,1,.631,3.318v.56a6.422,6.422,0,0,1-.3,2.016,6.107,6.107,0,0,1-.759,1.568,5.289,5.289,0,0,1-1.041,1.134,5.316,5.316,0,0,1-1.139.714L19.432-.812A.7.7,0,0,1,19.516-.5ZM12.18-14.084a1.388,1.388,0,0,0-.434-1.106,2.3,2.3,0,0,0-1.5-.378h-2.1v3.528h2.1a2,2,0,0,0,1.5-.462,1.461,1.461,0,0,0,.434-1.022ZM35.028-.588a.493.493,0,0,1-.168.378.7.7,0,0,1-.392.182q-.868.112-2.324.21t-3.3.1A17.21,17.21,0,0,1,26.18.07a6.129,6.129,0,0,1-2.422-.91,5.247,5.247,0,0,1-1.764-1.988,7.351,7.351,0,0,1-.686-3.444v-8.26a7.351,7.351,0,0,1,.686-3.444,5.247,5.247,0,0,1,1.764-1.988,6.129,6.129,0,0,1,2.422-.91,17.211,17.211,0,0,1,2.66-.21q1.848,0,3.3.1t2.324.21a.7.7,0,0,1,.392.182.493.493,0,0,1,.168.378v4.228a.537.537,0,0,1-.168.392.537.537,0,0,1-.392.168H28.84a1.087,1.087,0,0,0-.728.182.975.975,0,0,0-.2.714v1.512h6.552a.537.537,0,0,1,.392.168.537.537,0,0,1,.168.392v3.948a.537.537,0,0,1-.168.392.537.537,0,0,1-.392.168H27.916v1.68a.975.975,0,0,0,.2.714,1.087,1.087,0,0,0,.728.182h5.628a.537.537,0,0,1,.392.168.537.537,0,0,1,.168.392ZM49.812,0a.493.493,0,0,1-.378-.168.89.89,0,0,1-.21-.392L48.72-3.7H44.464L43.96-.56a.891.891,0,0,1-.21.392A.493.493,0,0,1,43.372,0H37.548a.4.4,0,0,1-.378-.168.507.507,0,0,1-.042-.392L40.46-17.472a4.32,4.32,0,0,1,.7-1.764,3.6,3.6,0,0,1,1.288-1.106,6.04,6.04,0,0,1,1.82-.574,14.6,14.6,0,0,1,2.324-.168,14.6,14.6,0,0,1,2.324.168,5.866,5.866,0,0,1,1.806.574A3.64,3.64,0,0,1,52-19.236a4.612,4.612,0,0,1,.728,1.764L56.056-.56a.507.507,0,0,1-.042.392A.4.4,0,0,1,55.636,0ZM46.844-15.345a1.185,1.185,0,0,0-.07-.265.176.176,0,0,0-.182-.1.176.176,0,0,0-.182.1,1.185,1.185,0,0,0-.07.265L45.3-8.848H47.88ZM70.42-.868a.494.494,0,0,1-.112.378,1.8,1.8,0,0,1-.476.238A10.689,10.689,0,0,1,68.25.126,12.608,12.608,0,0,1,66.164.28Q61.6.28,59.388-2.184T57.176-9.268v-2.268q0-4.648,2.212-7.1t6.776-2.45a13.4,13.4,0,0,1,2.128.154,8.053,8.053,0,0,1,1.54.378,1.8,1.8,0,0,1,.476.238.494.494,0,0,1,.112.378v4.424q0,.588-.56.5-.448-.056-1.316-.154a15.713,15.713,0,0,0-1.764-.1,5.29,5.29,0,0,0-1.19.126,1.782,1.782,0,0,0-.924.532,2.763,2.763,0,0,0-.588,1.134,7.193,7.193,0,0,0-.21,1.932v2.268a7.625,7.625,0,0,0,.21,2,2.452,2.452,0,0,0,.6,1.12,1.857,1.857,0,0,0,.924.49,5.872,5.872,0,0,0,1.2.112,14.217,14.217,0,0,0,1.442-.07q.686-.07,1.61-.182a.513.513,0,0,1,.434.056.6.6,0,0,1,.126.448Zm17.164-15.12a.518.518,0,0,1-.182.392.584.584,0,0,1-.406.168H83.188V-.56a.536.536,0,0,1-.169.392A.54.54,0,0,1,82.626,0H77.142a.54.54,0,0,1-.394-.168A.536.536,0,0,1,76.58-.56V-15.428H72.66a.537.537,0,0,1-.392-.168.537.537,0,0,1-.168-.392v-4.256a.537.537,0,0,1,.168-.392.537.537,0,0,1,.392-.168H87a.585.585,0,0,1,.406.168.518.518,0,0,1,.182.392Z" transform="translate(-1.54 21.084)" fill="#005bff"/>
</svg>
