<svg xmlns="http://www.w3.org/2000/svg" width="23.985" height="21.36" viewBox="0 0 23.985 21.36">
  <g id="logo" transform="translate(-175.7 -78)">
    <path id="Path_3" data-name="Path 3" d="M199.685,88.682c0-1.589-1.99-3.095-5.041-4.029.7-3.109.391-5.583-.988-6.375a2.143,2.143,0,0,0-1.1-.274V79.1a1.132,1.132,0,0,1,.557.127c.665.381.953,1.833.728,3.7-.054.46-.142.944-.249,1.437a23.694,23.694,0,0,0-3.1-.533,23.85,23.85,0,0,0-2.034-2.444c1.594-1.481,3.09-2.293,4.107-2.293V78c-1.344,0-3.1.958-4.884,2.62-1.78-1.652-3.54-2.6-4.884-2.6v1.09c1.012,0,2.513.807,4.107,2.278a23.089,23.089,0,0,0-2.019,2.44,22.831,22.831,0,0,0-3.109.538c-.112-.489-.2-.963-.254-1.418-.23-1.868.054-3.32.714-3.706a1.088,1.088,0,0,1,.562-.127v-1.09a2.18,2.18,0,0,0-1.1.274c-1.374.792-1.682,3.261-.973,6.361-3.041.939-5.021,2.44-5.021,4.024s1.99,3.095,5.041,4.029c-.7,3.109-.391,5.583.988,6.375a2.149,2.149,0,0,0,1.1.274c1.344,0,3.1-.958,4.884-2.62,1.78,1.652,3.54,2.6,4.884,2.6a2.18,2.18,0,0,0,1.1-.274c1.374-.792,1.682-3.261.973-6.361C197.705,91.772,199.685,90.266,199.685,88.682Zm-6.365-3.261c-.181.631-.406,1.281-.66,1.931-.2-.391-.411-.782-.64-1.173s-.464-.772-.7-1.144C192.01,85.138,192.68,85.265,193.32,85.421Zm-2.239,5.207c-.381.66-.772,1.286-1.178,1.868-.728.064-1.467.1-2.21.1s-1.476-.034-2.2-.093q-.609-.873-1.183-1.858c-.372-.64-.709-1.291-1.017-1.946.3-.655.645-1.31,1.012-1.951.381-.66.772-1.286,1.178-1.868.728-.064,1.467-.1,2.21-.1s1.476.034,2.2.093q.609.873,1.183,1.858.557.961,1.017,1.946C191.785,89.333,191.448,89.988,191.081,90.628Zm1.579-.636c.264.655.489,1.31.675,1.946-.64.156-1.315.288-2.014.391.24-.376.479-.763.7-1.159S192.46,90.384,192.66,89.993ZM187.7,95.209a20.162,20.162,0,0,1-1.359-1.564c.44.02.89.034,1.344.034s.914-.01,1.359-.034A19.078,19.078,0,0,1,187.7,95.209Zm-3.637-2.88c-.694-.1-1.364-.23-2-.386.181-.631.406-1.281.66-1.931.2.391.411.782.64,1.173S183.826,91.958,184.065,92.33Zm3.613-10.174a20.162,20.162,0,0,1,1.359,1.564c-.44-.02-.89-.034-1.344-.034s-.914.01-1.359.034A19.078,19.078,0,0,1,187.678,82.156Zm-3.618,2.88c-.24.376-.479.763-.7,1.159s-.435.782-.636,1.173c-.264-.655-.489-1.31-.675-1.946C182.686,85.27,183.361,85.138,184.06,85.035Zm-4.425,6.121c-1.731-.738-2.85-1.706-2.85-2.474s1.12-1.74,2.85-2.474c.42-.181.88-.342,1.354-.494a23.487,23.487,0,0,0,1.1,2.977A23.151,23.151,0,0,0,181,91.655c-.484-.152-.944-.318-1.369-.5Zm2.63,6.986c-.665-.381-.953-1.833-.728-3.7.054-.46.142-.944.249-1.437a23.691,23.691,0,0,0,3.1.533,23.849,23.849,0,0,0,2.034,2.444c-1.594,1.481-3.09,2.293-4.107,2.293a1.167,1.167,0,0,1-.552-.132Zm11.6-3.725c.23,1.868-.054,3.32-.714,3.706a1.088,1.088,0,0,1-.562.127c-1.012,0-2.513-.807-4.107-2.278a23.093,23.093,0,0,0,2.019-2.44,22.83,22.83,0,0,0,3.109-.538A13.69,13.69,0,0,1,193.863,94.417Zm1.882-3.261c-.42.181-.88.342-1.354.494a23.477,23.477,0,0,0-1.1-2.977,23.152,23.152,0,0,0,1.085-2.963c.484.152.944.318,1.374.5,1.731.738,2.85,1.706,2.85,2.474S197.476,90.423,195.745,91.156ZM182.794,78.02Z" transform="translate(0)" fill="#005bff"/>
    <circle id="Ellipse_1" data-name="Ellipse 1" cx="2.5" cy="2.5" r="2.5" transform="translate(185.041 86.029)" fill="#005bff"/>
    <path id="Path_4" data-name="Path 4" d="M520.5,78.1Z" transform="translate(-327.943)" fill="#005bff"/>
  </g>
</svg>
