<svg width="24px" height="24px" viewBox="0 0 24 24" version="1.1" xmlns="http://www.w3.org/2000/svg" ><path fill="currentColor" fill-rule="nonzero" d="M7 12.1c-.26 0-.52-.11-.71-.292a1.062 1.062 0 0 1-.29-.714c0-.262.11-.524.29-.715a1.042 1.042 0 0 1 1.42 0c.18.191.29.453.29.715 0 .261-.11.523-.29.714-.19.181-.45.292-.71.292zm10 0c-.26 0-.52-.11-.71-.29-.09-.1-.16-.21-.21-.331a.998.998 0 0 1-.08-.38c0-.13.03-.261.08-.381s.12-.23.21-.33c.28-.271.72-.371 1.09-.211.13.05.23.12.33.21.09.1.16.21.21.33.05.12.08.251.08.381s-.03.26-.08.381c-.05.12-.12.23-.21.33-.19.18-.45.291-.71.291zm-8.207 4.704a1 1 0 0 1 1.414-1.414c.99.99 2.596.99 3.586 0a1 1 0 0 1 1.414 1.414 4.537 4.537 0 0 1-6.414 0zM3.5 11.864c0 5.071 4.405 9.027 9.51 8.442 3.77-.433 6.876-3.455 7.402-7.204.411-2.927-.66-5.734-2.79-7.614a8.473 8.473 0 0 0-3.496-1.857 1 1 0 0 1 .498-1.937 10.473 10.473 0 0 1 4.32 2.294c2.63 2.32 3.955 5.792 3.449 9.392-.653 4.653-4.48 8.376-9.156 8.912C6.943 23.014 1.5 18.127 1.5 11.863c0-4.819 3.273-8.985 7.876-10.17l1.249-.32v1.29a3.45 3.45 0 0 0 3.45 3.45h.3a1 1 0 0 1 0 2h-.3A5.453 5.453 0 0 1 8.789 3.99 8.507 8.507 0 0 0 3.5 11.863z"></path></svg>